name C:\Users\u0101727\Documents\MyRepositories\upper-imu-dc\Results\main_tracking\Case_49\kinematics.mot
datacolumns 10
datarows 18
range 2.20000000 2.37000000
endheader 
time	clav_prot	clav_elev	scapula_abduction	scapula_elevation	scapula_upward_rot	scapula_winging	plane_elv	shoulder_elv	axial_rot	
          2.20000000	        -40.84118175	          8.18180054	        -17.58762802	         -3.02987550	         53.15822102	        -11.03483700	         -7.65716889	         62.96526801	          3.45551397	
          2.21000000	        -40.93866534	          8.30591908	        -17.45430055	         -2.97527054	         53.57164922	        -11.15467400	         -7.27059127	         63.49050703	          3.41862113	
          2.22000000	        -41.03709610	          8.42710932	        -17.32863552	         -2.92134398	         53.97589484	        -11.27225241	         -6.89445136	         64.01749895	          3.37335926	
          2.23000000	        -41.13625476	          8.54515368	        -17.20966250	         -2.86831941	         54.37167020	        -11.38754583	         -6.53097592	         64.54633679	          3.31992444	
          2.24000000	        -41.23583769	          8.65980585	        -17.09615256	         -2.81643157	         54.75982729	        -11.50047145	         -6.18251967	         65.07716390	          3.25852972	
          2.25000000	        -41.33545868	          8.77080578	        -16.98662463	         -2.76591516	         55.14136041	        -11.61089211	         -5.85152857	         65.61016145	          3.18939277	
          2.26000000	        -41.43465685	          8.87790127	        -16.87936887	         -2.71698952	         55.51740247	        -11.71862302	         -5.54048729	         66.14552724	          3.11272110	
          2.27000000	        -41.53291001	          8.98087536	        -16.77248778	         -2.66983958	         55.88921293	        -11.82344286	         -5.25185147	         66.68344547	          3.02869500	
          2.28000000	        -41.62965307	          9.07957675	        -16.66395441	         -2.62459500	         56.25815535	        -11.92510819	         -4.98796566	         67.22404983	          2.93744940	
          2.29000000	        -41.72430110	          9.17394974	        -16.55168738	         -2.58130987	         56.62566290	        -12.02337042	         -4.75096803	         67.76738376	          2.83905808	
          2.30000000	        -41.81627772	          9.26406007	        -16.43364340	         -2.53994565	         56.99319067	        -12.11799493	         -4.54268218	         68.31336114	          2.73352398	
          2.31000000	        -41.90504994	          9.35011418	        -16.30792702	         -2.50035910	         57.36215562	        -12.20878283	         -4.36449782	         68.86173029	          2.62077923	
          2.32000000	        -41.99016858	          9.43246919	        -16.17291359	         -2.46229743	         57.73386701	        -12.29559468	         -4.21724562	         69.41204341	          2.50069763	
          2.33000000	        -42.07131118	          9.51162969	        -16.02737436	         -2.42540302	         58.10945263	        -12.37837370	         -4.10107649	         69.96363391	          2.37312086	
          2.34000000	        -42.14832074	          9.58822764	        -15.87058745	         -2.38923029	         58.48978746	        -12.45716435	         -4.01536127	         70.51560505	          2.23789806	
          2.35000000	        -42.22123341	          9.66298294	        -15.70241658	         -2.35327572	         58.87543215	        -12.53212135	         -3.95862838	         71.06683363	          2.09493584	
          2.36000000	        -42.29028902	          9.73664613	        -15.52334293	         -2.31701967	         59.26658924	        -12.60350634	         -3.92855431	         71.61599206	          1.94425344	
          2.37000000	        -42.35592201	          9.80992987	        -15.33444205	         -2.27997538	         59.66308491	        -12.67167192	         -3.92201422	         72.16159006	          1.78603617	
